mtllib Door.mtl
o Default
v -2 0 1.7763568394002505e-15
v -2 1 1.7763568394002505e-15
v -1 1 1.7763568394002505e-15
v -1 0 1.7763568394002505e-15
v 1 0 0
v 2 1 0
v 1 1 0
v 2 0 0
v -2 1 1.7763568394002505e-15
v -1 2 1.7763568394002505e-15
v -2 2 1.7763568394002505e-15
v -1 1 1.7763568394002505e-15
v -1 -0.00011764965893235058 0.9999499917030334
v 0 -0.000022415670173359104 0.00005001409590477124
v -1 0 1.7763568394002505e-15
v 0 -0.00010524655226618052 0.9999499917030334
v 1 1 0
v 2 2 0
v 1 2 0
v 2 1 0
v -1 2 1.7763568394002505e-15
v 0 3 0
v -1 3 0
v 0 2 0
v 0 2 0
v 1 3 1.7763568394002505e-15
v 0 3 0
v 1 2 0
v -2 2 1.7763568394002505e-15
v -1 3 0
v -2 3 0
v -1 2 1.7763568394002505e-15
v 0 -0.000022415670173359104 0.00005001409590477124
v 1 0.00008330367563758045 -0.9999499917030334
v 0 0.00007758432911941782 -0.9999499917030334
v 1 0 0
v -1 2 -1
v 0 2 0
v -1 2 1.7763568394002505e-15
v 0 1.9999274015426636 -1.0000499486923218
v 1 2 0
v 2 3 0
v 1 3 1.7763568394002505e-15
v 2 2 0
v -1 0 1.7763568394002505e-15
v -1 1 -1
v -1 1 1.7763568394002505e-15
v -1 0.0000775754451751709 -0.9999499917030334
v -1 1 1.7763568394002505e-15
v -1 2 -1
v -1 2 1.7763568394002505e-15
v -1 1 -1
v 1 0.00008330367563758045 -0.9999499917030334
v 1 1 0
v 1 1 -1
v 1 0 0
v 0 1.9999274015426636 -1.0000499486923218
v 1 2 0
v 0 2 0
v 1 2 -1
v -1 0 1.7763568394002505e-15
v 0 0.00007758432911941782 -0.9999499917030334
v -1 0.0000775754451751709 -0.9999499917030334
v 0 -0.000022415670173359104 0.00005001409590477124
v 0 -0.00010524655226618052 0.9999499917030334
v 1 0 0
v 0 -0.000022415670173359104 0.00005001409590477124
v 1 -0.00010524655226618052 0.9999499917030334
v 1 1 -1
v 1 2 0
v 1 2 -1
v 1 1 0
vt 0.625 0.625
vt 0.75 0.75
vt 0.625 0.75
vt 0.75 0.625
vt 0.375 0.625
vt 0.5 0.75
vt 0.375 0.75
vt 0.5 0.625
vt 0.75 0.875
vt 0.625 0.875
vt 0.125 0.375
vt 0.25 0.5
vt 0.125 0.5
vt 0.25 0.375
vt 0.5 0.875
vt 0.375 0.875
vt 0.375 0.5
vt 0.5 0.5
vt 0.25 0.75
vt 0.25 0.875
vt 0.75 0
vt 0.875 0.125
vt 0.75 0.125
vt 0.875 0
vt 0.625 0.5
vt 0.5 0.25
vt 0.625 0.375
vt 0.5 0.375
vt 0.625 0.25
vt 0.375 0.25
vt 0.375 0.375
vt 0 0.75
vt 0.125 0.875
vt 0 0.875
vt 0.125 0.75
vt 0 0.375
vt 0 0.5
vn 0 0 1
vn 0.00002241 0.99999999 0.00011766
vn -0.0000124 1 0.00008284
vn -0.00000572 0.99999999 0.0001
vn -0.00002241 1 0.00008331
vn 0 -1 0
vn -0.00007259 -0.99999999 0.00007259
vn 1 0 0
vn -1 0 0
vn 0 -1 0.00007259
vn 0.0000726 -1 0
vn -1e-8 1 0.00007758
vn 0.00002241 0.99999999 0.0001
vn -0.00002241 1 0.00008284
vn 0 0.99999999 0.00010525
g Scene
usemtl 1
f 1/1/1 3/2/1 2/3/1
f 1/1/1 4/4/1 3/2/1
f 5/5/1 6/6/1 7/7/1
f 5/5/1 8/8/1 6/6/1
f 9/3/1 10/9/1 11/10/1
f 9/3/1 12/2/1 10/9/1
usemtl 2
f 13/11/2 14/12/2 15/13/2
f 13/11/3 16/14/3 14/12/3
usemtl 1
f 17/7/1 18/15/1 19/16/1
f 17/7/1 20/6/1 18/15/1
f 21/8/1 22/3/1 23/6/1
f 21/8/1 24/1/1 22/3/1
f 25/8/1 26/3/1 27/6/1
f 25/8/1 28/1/1 26/3/1
usemtl 2
f 29/17/1 30/8/1 31/5/1
f 29/17/1 32/18/1 30/8/1
usemtl 1
f 33/19/4 34/16/4 35/20/4
f 33/19/5 36/7/5 34/16/5
f 37/21/6 38/22/6 39/23/6
f 37/21/7 40/24/7 38/22/7
usemtl 2
f 41/18/1 42/1/1 43/8/1
f 41/18/1 44/25/1 42/1/1
f 45/26/8 46/27/8 47/28/8
f 45/26/8 48/29/8 46/27/8
f 49/26/8 50/27/8 51/28/8
f 49/26/8 52/29/8 50/27/8
f 53/30/9 54/28/9 55/31/9
f 53/30/9 56/26/9 54/28/9
usemtl 1
f 57/21/10 58/22/10 59/23/10
f 57/21/11 60/24/11 58/22/11
f 61/32/12 62/33/12 63/34/12
f 61/32/13 64/35/13 62/33/13
usemtl 2
f 65/36/14 66/13/14 67/37/14
f 65/36/15 68/11/15 66/13/15
f 69/30/9 70/28/9 71/31/9
f 69/30/9 72/26/9 70/28/9
