mtllib Base_Room.mtl
o Default
v -1 -1.9998564720153809 0.00005000249802833423
v -1 -1.9997564554214478 -0.9999499917030334
v 0 -1.9997564554214478 -0.9999499917030334
v 0 -1.9998564720153809 0.00005000249802833423
v 0 -1.9998564720153809 0.00005000249802833423
v 1 -1.9997669458389282 -0.9999499917030334
v 0 -1.9997564554214478 -0.9999499917030334
v 1 -1.9998669624328613 0.00005000249802833423
v 0 -1.9999470710754395 0.9999499917030334
v 1 -1.9998669624328613 0.00005000249802833423
v 0 -1.9998564720153809 0.00005000249802833423
v 1 -1.9999470710754395 0.9999499917030334
v -1 -1.9999449253082275 0.9999499917030334
v 0 -1.9998564720153809 0.00005000249802833423
v -1 -1.9998564720153809 0.00005000249802833423
v 0 -1.9999470710754395 0.9999499917030334
v -2 -1.9998595714569092 0.00005000249802833423
v -1 -1.9997564554214478 -0.9999499917030334
v -2 -1.999759554862976 -0.9999499917030334
v -1 -1.9998564720153809 0.00005000249802833423
v -2 -1.999759554862976 -0.9999499917030334
v -1 -1.9996901750564575 -1.9998500347137451
v -2 -1.9996901750564575 -1.9998500347137451
v -1 -1.9997564554214478 -0.9999499917030334
v -1 -1.9997564554214478 -0.9999499917030334
v 0 -1.9996898174285889 -1.9998500347137451
v -1 -1.9996901750564575 -1.9998500347137451
v 0 -1.9997564554214478 -0.9999499917030334
v 0 -1.9997564554214478 -0.9999499917030334
v 1 -1.9996893405914307 -1.9998500347137451
v 0 -1.9996898174285889 -1.9998500347137451
v 1 -1.9997669458389282 -0.9999499917030334
v 1 -1.9997669458389282 -0.9999499917030334
v 2 -1.9996892213821411 -1.9998500347137451
v 1 -1.9996893405914307 -1.9998500347137451
v 2 -1.9997892379760742 -0.9998499751091003
v 1 -1.9998669624328613 0.00005000249802833423
v 2 -1.9997892379760742 -0.9998499751091003
v 1 -1.9997669458389282 -0.9999499917030334
v 2 -1.9998233318328857 0.00005000249802833423
v 1 -1.9999470710754395 0.9999499917030334
v 2 -1.9998233318328857 0.00005000249802833423
v 1 -1.9998669624328613 0.00005000249802833423
v 2 -1.9999258518218994 0.9999499917030334
v 1 -2.0000159740448 1.9998500347137451
v 2 -1.9999258518218994 0.9999499917030334
v 1 -1.9999470710754395 0.9999499917030334
v 2 -2.0000159740448 1.9998500347137451
v 0 -2.000023603439331 1.9998500347137451
v 1 -1.9999470710754395 0.9999499917030334
v 0 -1.9999470710754395 0.9999499917030334
v 1 -2.0000159740448 1.9998500347137451
v -1 -2.0000429153442383 1.9998500347137451
v 0 -1.9999470710754395 0.9999499917030334
v -1 -1.9999449253082275 0.9999499917030334
v 0 -2.000023603439331 1.9998500347137451
v -2 -2.0000360012054443 1.9998500347137451
v -1 -1.9999449253082275 0.9999499917030334
v -2 -1.9999361038208008 0.9998499751091003
v -1 -2.0000429153442383 1.9998500347137451
v -2 -1.9999361038208008 0.9998499751091003
v -1 -1.9998564720153809 0.00005000249802833423
v -2 -1.9998595714569092 0.00005000249802833423
v -1 -1.9999449253082275 0.9999499917030334
v -3 -1.9997957944869995 -0.9999499917030334
v -2 -1.9996901750564575 -1.9998500347137451
v -3 -1.9997094869613647 -1.9998500347137451
v -2 -1.999759554862976 -0.9999499917030334
v -3 -1.9997094869613647 -1.9998500347137451
v -2 -1.9995731115341187 -2.9997498989105225
v -3 -1.9996107816696167 -2.9997498989105225
v -2 -1.9996901750564575 -1.9998500347137451
v 1 -1.9996893405914307 -1.9998500347137451
v 2 -1.9995687007904053 -2.9997498989105225
v 1 -1.999571681022644 -2.9997498989105225
v 2 -1.9996892213821411 -1.9998500347137451
v 2 -1.9997892379760742 -0.9998499751091003
v 3 -1.9996756315231323 -1.999750018119812
v 2 -1.9996892213821411 -1.9998500347137451
v 3 -1.9997446537017822 -0.9998499751091003
v 2 -1.9996892213821411 -1.9998500347137451
v 3 -1.9995757341384888 -2.9997498989105225
v 2 -1.9995687007904053 -2.9997498989105225
v 3 -1.9996756315231323 -1.999750018119812
v -3 -2.0000345706939697 1.999750018119812
v -2 -1.9999361038208008 0.9998499751091003
v -3 -2.0000107288360596 0.9998499751091003
v -2 -2.0000360012054443 1.9998500347137451
v -2 -1.9996901750564575 -1.9998500347137451
v -1 -1.9995731115341187 -2.9997498989105225
v -2 -1.9995731115341187 -2.9997498989105225
v -1 -1.9996901750564575 -1.9998500347137451
v 2 -2.0000159740448 1.9998500347137451
v 3 -1.9999430179595947 0.9999499917030334
v 2 -1.9999258518218994 0.9999499917030334
v 3 -2.000019073486328 1.9998500347137451
v -2 -2.000136375427246 2.9997498989105225
v -1 -2.0000429153442383 1.9998500347137451
v -2 -2.0000360012054443 1.9998500347137451
v -1 -2.000135898590088 2.9997498989105225
v -3 -2.0001344680786133 2.9997498989105225
v -2 -2.0000360012054443 1.9998500347137451
v -3 -2.0000345706939697 1.999750018119812
v -2 -2.000136375427246 2.9997498989105225
v 2 -2.000119686126709 2.9997498989105225
v 3 -2.000019073486328 1.9998500347137451
v 2 -2.0000159740448 1.9998500347137451
v 3 -2.000119686126709 2.9997498989105225
v 1 -2.0001235008239746 2.9997498989105225
v 2 -2.0000159740448 1.9998500347137451
v 1 -2.0000159740448 1.9998500347137451
v 2 -2.000119686126709 2.9997498989105225
v 2 -1.9995687007904053 -2.9997498989105225
v 3 -0.9998636245727539 -3
v 2 -0.9998636245727539 -3
v 3 -1.9995757341384888 -2.9997498989105225
v -3 -1.9996107816696167 -2.9997498989105225
v -2 -0.9998636245727539 -3
v -3 -0.9998636245727539 -3
v -2 -1.9995731115341187 -2.9997498989105225
v -3 0.00013637542724609375 -3
v -2 1.000136375427246 -3
v -3 1.000136375427246 -3
v -2 0.00013637542724609375 -3
v -3 -0.9998636245727539 -3
v -2 0.00013637542724609375 -3
v -3 0.00013637542724609375 -3
v -2 -0.9998636245727539 -3
v -3 1.000136375427246 -3
v -2 2.000136375427246 -3
v -3 2.000136375427246 -3
v -2 1.000136375427246 -3
v -2 1.000136375427246 -3
v -1 2.000136375427246 -3
v -2 2.000136375427246 -3
v -1 1.000136375427246 -3
v -1 1.000136375427246 -3
v 0 2.000136375427246 -3
v -1 2.000136375427246 -3
v 0 1.000136375427246 -3
v 0 1.000136375427246 -3
v 1 2.000136375427246 -3
v 0 2.000136375427246 -3
v 1 1.000136375427246 -3
v 1 1.000136375427246 -3
v 2 2.000136375427246 -3
v 1 2.000136375427246 -3
v 2 1.000136375427246 -3
v 2 1.000136375427246 -3
v 3 2.000136375427246 -3
v 2 2.000136375427246 -3
v 3 1.000136375427246 -3
v 2 0.00013637542724609375 -3
v 3 1.000136375427246 -3
v 2 1.000136375427246 -3
v 3 0.00013637542724609375 -3
v 2 -0.9998636245727539 -3
v 3 0.00013637542724609375 -3
v 2 0.00013637542724609375 -3
v 3 -0.9998636245727539 -3
v -3 -2.0001344680786133 2.9997498989105225
v -3 -0.9998636245727539 2
v -3 -0.9998636245727539 3
v -3 -2.0000345706939697 1.999750018119812
v -3 -0.9998636245727539 3
v -3 0.00013637542724609375 2
v -3 0.00013637542724609375 3
v -3 -0.9998636245727539 2
v -3 0.00013637542724609375 3
v -3 1.000136375427246 2
v -3 1.000136375427246 3
v -3 0.00013637542724609375 2
v -3 1.000136375427246 2
v -3 2.000136375427246 1
v -3 2.000136375427246 2
v -3 1.000136375427246 1
v -3 1.000136375427246 3
v -3 2.000136375427246 2
v -3 2.000136375427246 3
v -3 1.000136375427246 2
v -3 1.000136375427246 1
v -3 2.000136375427246 -1.1657341758564144e-15
v -3 2.000136375427246 1
v -3 1.000136375427246 -1.1657341758564144e-15
v -3 1.000136375427246 -1.1657341758564144e-15
v -3 2.000136375427246 -1
v -3 2.000136375427246 -1.1657341758564144e-15
v -3 1.000136375427246 -1
v -3 1.000136375427246 -1
v -3 2.000136375427246 -2
v -3 2.000136375427246 -1
v -3 1.000136375427246 -2
v -3 1.000136375427246 -2
v -3 2.000136375427246 -3
v -3 2.000136375427246 -2
v -3 1.000136375427246 -3
v -3 0.00013637542724609375 -2
v -3 1.000136375427246 -3
v -3 1.000136375427246 -2
v -3 0.00013637542724609375 -3
v -3 -0.9998636245727539 -2
v -3 0.00013637542724609375 -3
v -3 0.00013637542724609375 -2
v -3 -0.9998636245727539 -3
v -3 -1.9997094869613647 -1.9998500347137451
v -3 -0.9998636245727539 -3
v -3 -0.9998636245727539 -2
v -3 -1.9996107816696167 -2.9997498989105225
v -2 -2.000136375427246 2.9997498989105225
v -3 -0.9998636245727539 3
v -2 -0.9998636245727539 3
v -3 -2.0001344680786133 2.9997498989105225
v -2 -0.9998636245727539 3
v -3 0.00013637542724609375 3
v -2 0.00013637542724609375 3
v -3 -0.9998636245727539 3
v -2 0.00013637542724609375 3
v -3 1.000136375427246 3
v -2 1.000136375427246 3
v -3 0.00013637542724609375 3
v -2 1.000136375427246 3
v -3 2.000136375427246 3
v -2 2.000136375427246 3
v -3 1.000136375427246 3
v -1 1.000136375427246 3
v -2 2.000136375427246 3
v -1 2.000136375427246 3
v -2 1.000136375427246 3
v 0 1.000136375427246 3
v -1 2.000136375427246 3
v 0 2.000136375427246 3
v -1 1.000136375427246 3
v 1 1.000136375427246 3
v 0 2.000136375427246 3
v 1 2.000136375427246 3
v 0 1.000136375427246 3
v 2 1.000136375427246 3
v 1 2.000136375427246 3
v 2 2.000136375427246 3
v 1 1.000136375427246 3
v 3 1.000136375427246 3
v 2 2.000136375427246 3
v 3 2.000136375427246 3
v 2 1.000136375427246 3
v 3 0.00013637542724609375 3
v 2 1.000136375427246 3
v 3 1.000136375427246 3
v 2 0.00013637542724609375 3
v 3 -0.9998636245727539 3
v 2 0.00013637542724609375 3
v 3 0.00013637542724609375 3
v 2 -0.9998636245727539 3
v 3 -2.000119686126709 2.9997498989105225
v 2 -0.9998636245727539 3
v 3 -0.9998636245727539 3
v 2 -2.000119686126709 2.9997498989105225
v 3 0.00013637542724609375 -3
v 3 1.000136375427246 -2
v 3 1.000136375427246 -3
v 3 0.00013637542724609375 -2
v 3 -0.9998636245727539 -3
v 3 0.00013637542724609375 -2
v 3 0.00013637542724609375 -3
v 3 -0.9998636245727539 -2
v 3 -2.000019073486328 1.9998500347137451
v 3 -0.9998636245727539 3
v 3 -0.9998636245727539 2
v 3 -2.000119686126709 2.9997498989105225
v 3 1.000136375427246 -3
v 3 2.000136375427246 -2
v 3 2.000136375427246 -3
v 3 1.000136375427246 -2
v 3 1.000136375427246 -2
v 3 2.000136375427246 -1
v 3 2.000136375427246 -2
v 3 1.000136375427246 -1
v 3 1.000136375427246 -1
v 3 2.000136375427246 0
v 3 2.000136375427246 -1
v 3 1.000136375427246 0
v 3 1.000136375427246 0
v 3 2.000136375427246 1
v 3 2.000136375427246 0
v 3 1.000136375427246 1
v 3 1.000136375427246 1
v 3 2.000136375427246 2
v 3 2.000136375427246 1
v 3 1.000136375427246 2
v 3 1.000136375427246 2
v 3 2.000136375427246 3
v 3 2.000136375427246 2
v 3 1.000136375427246 3
v 3 0.00013637542724609375 2
v 3 1.000136375427246 3
v 3 1.000136375427246 2
v 3 0.00013637542724609375 3
v 3 -0.9998636245727539 2
v 3 0.00013637542724609375 3
v 3 0.00013637542724609375 2
v 3 -0.9998636245727539 3
v 3 -1.9995757341384888 -2.9997498989105225
v 3 -0.9998636245727539 -2
v 3 -0.9998636245727539 -3
v 3 -1.9996757507324219 -1.9997498989105225
vt 0.125 0.75
vt 0.25 0.875
vt 0.125 0.875
vt 0.25 0.75
vt 0 0.75
vt 0 0.875
vt 0.125 1
vt 0 1
vt 0.25 1
vt 0.375 0.875
vt 0.375 0.75
vt 0.375 1
vt 0.125 0.625
vt 0.25 0.625
vt 0 0.625
vt 0.375 0.625
vt 0.625 0.625
vt 0.75 0.75
vt 0.625 0.75
vt 0.75 0.625
vt 0.5 0.75
vt 0.5 0.625
vt 0.5 0.875
vt 0.5 1
vt 0.625 1
vt 0.625 0.875
vt 0.75 1
vt 0.75 0.875
vn 0 0.99999999 0.00010002
vn 0.00001049 0.99999999 0.00010002
vn 0.00001049 1 0.00009061
vn 0 1 0.00008012
vn 0 1 0.00008846
vn 0.00000215 1 0.00009061
vn -0.0000031 0.99999999 0.00010002
vn 0 1 0.00006939
vn -0.0000031 1 0.00006629
vn -3.6e-7 1 0.00006629
vn 0 1 0.00006664
vn -4.8e-7 1 0.00006664
vn 0.00001049 1 0.00007761
vn -1.2e-7 1 0.00007761
vn 0.00002228 0.99999999 0.00010002
vn -0.00004363 1 0.0000341
vn -0.00004363 1 0.00008012
vn -0.00002122 0.99999999 0.00010253
vn -0.00002122 1 0.00006891
vn 0 1 0.00009013
vn 0 1 0.00007654
vn -0.00000763 1 0.00006891
vn 0.00000215 1 0.000098
vn -0.00001931 1 0.00007654
vn 0.00000881 0.99999999 0.0000999
vn 0.00000691 1 0.000098
vn -0.0000031 1 0.00007655
vn 0.00000881 1 0.00008846
vn -0.00001931 1 0.00008632
vn -0.00003624 1 0.00006939
vn -0.00003767 0.99999999 0.00009872
vn -0.00001931 0.99999999 0.00011708
vn -0.00000298 0.99999999 0.00011767
vn -1.2e-7 0.99999999 0.00012053
vn -0.0000136 0.99999999 0.00010002
vn -0.00004458 1 0.00006903
vn 0.00000703 0.99999999 0.00012053
vn -0.0000136 0.99999999 0.0000999
vn -0.00007463 1 0.00002384
vn 0.00000142 1 0.0000999
vn 0 0.99999999 0.00011708
vn 0.00001717 1 0.00009013
vn 0.0000031 1 0.00007606
vn 0.00000691 0.99999999 0.00010038
vn -4.8e-7 1 0.00009299
vn 0.00000191 0.99999999 0.00010038
vn 0.0000031 0.99999999 0.00010372
vn 0 0.99999999 0.00010062
vn 0 0.99999999 0.00010754
vn -0.00000381 0.99999999 0.00010372
vn 0 0.00025017 0.99999997
vn 0 0.00025016 0.99999997
vn -1e-8 0.00025017 0.99999997
vn 0 0 1
vn 1 0 0
vn 0 0.00025003 -0.99999997
vn 0 0 -1
vn 0 0.00025004 -0.99999997
vn -1 0 0
g Scene
usemtl 1
f 1/1/1 3/2/1 2/3/1
f 1/1/1 4/4/1 3/2/1
f 5/1/2 6/2/2 7/3/2
f 5/1/2 8/4/2 6/2/2
f 9/1/3 10/2/3 11/3/3
f 9/1/4 12/4/4 10/2/4
f 13/1/5 14/2/5 15/3/5
f 13/1/6 16/4/6 14/2/6
f 17/1/7 18/2/7 19/3/7
f 17/1/7 20/4/7 18/2/7
f 21/1/8 22/2/8 23/3/8
f 21/1/9 24/4/9 22/2/9
f 25/1/10 26/2/10 27/3/10
f 25/1/11 28/4/11 26/2/11
f 29/1/12 30/2/12 31/3/12
f 29/1/13 32/4/13 30/2/13
f 33/1/14 34/2/14 35/3/14
f 33/1/15 36/4/15 34/2/15
f 37/1/15 38/2/15 39/3/15
f 37/1/16 40/4/16 38/2/16
f 41/1/17 42/2/17 43/3/17
f 41/1/18 44/4/18 42/2/18
f 45/1/19 46/2/19 47/3/19
f 45/1/20 48/4/20 46/2/20
f 49/1/21 50/2/21 51/3/21
f 49/1/22 52/4/22 50/2/22
f 53/1/23 54/2/23 55/3/23
f 53/1/24 56/4/24 54/2/24
f 57/1/25 58/2/25 59/3/25
f 57/1/26 60/4/26 58/2/26
f 61/1/27 62/2/27 63/3/27
f 61/1/28 64/4/28 62/2/28
f 65/5/29 66/3/29 67/6/29
f 65/5/30 68/1/30 66/3/30
f 69/6/31 70/7/31 71/8/31
f 69/6/32 72/3/32 70/7/32
f 73/3/33 74/9/33 75/7/33
f 73/3/34 76/2/34 74/9/34
f 77/4/35 78/10/35 79/2/35
f 77/4/36 80/11/36 78/10/36
f 81/2/37 82/12/37 83/9/37
f 81/2/38 84/10/38 82/12/38
f 85/5/39 86/3/39 87/6/39
f 85/5/40 88/1/40 86/3/40
f 89/3/41 90/9/41 91/7/41
f 89/3/41 92/2/41 90/9/41
f 93/4/42 94/10/42 95/2/42
f 93/4/43 96/11/43 94/10/43
f 97/13/44 98/4/44 99/1/44
f 97/13/45 100/14/45 98/4/45
f 101/15/40 102/1/40 103/5/40
f 101/15/46 104/13/46 102/1/46
f 105/14/47 106/11/47 107/4/47
f 105/14/48 108/16/48 106/11/48
f 109/13/49 110/4/49 111/1/49
f 109/13/50 112/14/50 110/4/50
f 113/17/51 114/18/51 115/19/51
f 113/17/51 116/20/51 114/18/51
f 117/16/52 118/21/52 119/11/52
f 117/16/53 120/22/53 118/21/53
f 121/11/54 122/23/54 123/10/54
f 121/11/54 124/21/54 122/23/54
f 125/11/54 126/23/54 127/10/54
f 125/11/54 128/21/54 126/23/54
f 129/10/54 130/24/54 131/12/54
f 129/10/54 132/23/54 130/24/54
f 133/23/54 134/25/54 135/24/54
f 133/23/54 136/26/54 134/25/54
f 137/23/54 138/25/54 139/24/54
f 137/23/54 140/26/54 138/25/54
f 141/23/54 142/25/54 143/24/54
f 141/23/54 144/26/54 142/25/54
f 145/23/54 146/25/54 147/24/54
f 145/23/54 148/26/54 146/25/54
f 149/26/54 150/27/54 151/25/54
f 149/26/54 152/28/54 150/27/54
f 153/19/54 154/28/54 155/26/54
f 153/19/54 156/18/54 154/28/54
f 157/19/54 158/28/54 159/26/54
f 157/19/54 160/18/54 158/28/54
f 161/16/55 162/21/55 163/11/55
f 161/16/55 164/22/55 162/21/55
f 165/11/55 166/23/55 167/10/55
f 165/11/55 168/21/55 166/23/55
f 169/11/55 170/23/55 171/10/55
f 169/11/55 172/21/55 170/23/55
f 173/23/55 174/25/55 175/24/55
f 173/23/55 176/26/55 174/25/55
f 177/10/55 178/24/55 179/12/55
f 177/10/55 180/23/55 178/24/55
f 181/23/55 182/25/55 183/24/55
f 181/23/55 184/26/55 182/25/55
f 185/23/55 186/25/55 187/24/55
f 185/23/55 188/26/55 186/25/55
f 189/23/55 190/25/55 191/24/55
f 189/23/55 192/26/55 190/25/55
f 193/26/55 194/27/55 195/25/55
f 193/26/55 196/28/55 194/27/55
f 197/19/55 198/28/55 199/26/55
f 197/19/55 200/18/55 198/28/55
f 201/19/55 202/28/55 203/26/55
f 201/19/55 204/18/55 202/28/55
f 205/17/55 206/18/55 207/19/55
f 205/17/55 208/20/55 206/18/55
f 209/17/56 210/18/56 211/19/56
f 209/17/56 212/20/56 210/18/56
f 213/19/57 214/28/57 215/26/57
f 213/19/57 216/18/57 214/28/57
f 217/19/57 218/28/57 219/26/57
f 217/19/57 220/18/57 218/28/57
f 221/26/57 222/27/57 223/25/57
f 221/26/57 224/28/57 222/27/57
f 225/23/57 226/25/57 227/24/57
f 225/23/57 228/26/57 226/25/57
f 229/23/57 230/25/57 231/24/57
f 229/23/57 232/26/57 230/25/57
f 233/23/57 234/25/57 235/24/57
f 233/23/57 236/26/57 234/25/57
f 237/23/57 238/25/57 239/24/57
f 237/23/57 240/26/57 238/25/57
f 241/10/57 242/24/57 243/12/57
f 241/10/57 244/23/57 242/24/57
f 245/11/57 246/23/57 247/10/57
f 245/11/57 248/21/57 246/23/57
f 249/11/57 250/23/57 251/10/57
f 249/11/57 252/21/57 250/23/57
f 253/16/58 254/21/58 255/11/58
f 253/16/58 256/22/58 254/21/58
f 257/11/59 258/23/59 259/10/59
f 257/11/59 260/21/59 258/23/59
f 261/11/59 262/23/59 263/10/59
f 261/11/59 264/21/59 262/23/59
f 265/17/59 266/18/59 267/19/59
f 265/17/59 268/20/59 266/18/59
f 269/10/59 270/24/59 271/12/59
f 269/10/59 272/23/59 270/24/59
f 273/23/59 274/25/59 275/24/59
f 273/23/59 276/26/59 274/25/59
f 277/23/59 278/25/59 279/24/59
f 277/23/59 280/26/59 278/25/59
f 281/23/59 282/25/59 283/24/59
f 281/23/59 284/26/59 282/25/59
f 285/23/59 286/25/59 287/24/59
f 285/23/59 288/26/59 286/25/59
f 289/26/59 290/27/59 291/25/59
f 289/26/59 292/28/59 290/27/59
f 293/19/59 294/28/59 295/26/59
f 293/19/59 296/18/59 294/28/59
f 297/19/59 298/28/59 299/26/59
f 297/19/59 300/18/59 298/28/59
f 301/16/59 302/21/59 303/11/59
f 301/16/59 304/22/59 302/21/59
